<?xml version="1.0" standalone="no"?>
<!DOCTYPE svg PUBLIC "-//W3C//DTD SVG 20010904//EN"
 "http://www.w3.org/TR/2001/REC-SVG-20010904/DTD/svg10.dtd">
<svg version="1.0" xmlns="http://www.w3.org/2000/svg"
 width="512.000000pt" height="512.000000pt" viewBox="0 0 512.000000 512.000000"
 preserveAspectRatio="xMidYMid meet">

<g transform="translate(0.000000,512.000000) scale(0.100000,-0.100000)"
fill="#000000" stroke="none">
<path d="M2825 5095 c-24 -23 -25 -31 -25 -135 0 -104 1 -112 25 -135 15 -16
36 -25 55 -25 19 0 40 9 55 25 24 23 25 31 25 135 0 104 -1 112 -25 135 -15
16 -36 25 -55 25 -19 0 -40 -9 -55 -25z"/>
<path d="M2389 4811 c-47 -47 -37 -79 55 -168 84 -83 117 -93 161 -48 45 44
35 77 -47 161 -90 92 -122 102 -169 55z"/>
<path d="M3285 4830 c-11 -4 -50 -39 -87 -78 -78 -80 -87 -114 -43 -157 44
-45 77 -35 161 48 91 89 102 121 56 167 -31 30 -51 35 -87 20z"/>
<path d="M2265 4455 c-16 -15 -25 -36 -25 -55 0 -19 9 -40 25 -55 23 -24 31
-25 135 -25 104 0 112 1 135 25 16 15 25 36 25 55 0 19 -9 40 -25 55 -23 24
-31 25 -135 25 -104 0 -112 -1 -135 -25z"/>
<path d="M3225 4455 c-16 -15 -25 -36 -25 -55 0 -19 9 -40 25 -55 23 -24 31
-25 135 -25 104 0 112 1 135 25 16 15 25 36 25 55 0 19 -9 40 -25 55 -23 24
-31 25 -135 25 -104 0 -112 -1 -135 -25z"/>
<path d="M2800 3801 l0 -599 -43 -6 c-105 -16 -200 -87 -246 -185 -35 -75 -36
-181 -2 -258 13 -29 29 -58 37 -64 12 -9 14 -87 13 -453 -1 -280 -4 -427 -10
-403 -56 240 -356 325 -533 152 -61 -61 -91 -135 -90 -225 0 -76 28 -164 60
-191 11 -9 14 -51 14 -196 l0 -185 -91 113 c-49 63 -97 120 -106 126 -12 10
-77 13 -237 14 -214 1 -219 1 -157 15 197 42 371 196 417 368 10 38 14 129 14
354 l0 302 -79 0 -80 0 -3 -312 c-3 -306 -4 -314 -26 -357 -76 -141 -272 -232
-438 -204 -129 22 -253 105 -306 204 -22 43 -23 51 -26 357 l-3 312 -80 0 -79
0 0 -302 c0 -225 4 -316 14 -354 45 -171 222 -326 416 -368 63 -14 59 -14
-156 -15 -160 -1 -225 -4 -237 -13 -9 -7 -57 -64 -106 -127 l-91 -113 0 180
c0 177 1 182 25 218 141 208 -12 494 -265 494 -253 0 -406 -286 -265 -494 l25
-37 0 -550 0 -550 25 -24 c24 -25 26 -25 215 -25 l192 0 64 62 64 61 0 -261 0
-262 80 0 80 0 0 375 0 376 -25 24 c-15 16 -35 25 -56 25 -28 0 -49 -17 -154
-120 l-121 -120 -102 0 -102 0 0 443 0 442 80 0 80 0 0 -258 0 -258 25 -24
c34 -35 79 -33 113 4 15 16 88 105 162 199 l135 171 442 1 441 0 152 -190 c84
-105 160 -195 170 -200 32 -17 70 -11 95 15 l25 24 0 258 0 258 80 0 80 0 0
-442 0 -443 -102 0 -102 0 -121 120 c-105 103 -126 120 -154 120 -21 0 -41 -9
-56 -25 l-25 -24 0 -376 0 -375 80 0 80 0 0 262 0 261 64 -61 64 -62 192 0
c189 0 191 0 215 25 l25 24 0 550 0 550 25 37 c14 20 30 55 36 78 6 23 13 47
15 55 2 7 148 -167 324 -387 l320 -400 0 -466 0 -466 80 0 80 0 0 494 0 493
-320 401 -320 400 0 388 0 389 80 0 80 0 0 -337 0 -338 241 -282 c133 -156
252 -293 266 -306 l24 -22 437 0 437 -1 135 -171 c74 -94 147 -183 162 -199
34 -37 79 -39 113 -4 l25 24 0 218 0 218 80 0 80 0 0 -402 0 -403 -102 0 -102
0 -121 120 c-105 103 -126 120 -154 120 -21 0 -41 -9 -56 -25 l-25 -24 0 -376
0 -375 80 0 80 0 0 262 0 261 64 -61 64 -62 192 0 c189 0 191 0 215 25 l25 24
0 514 c0 427 2 517 14 526 8 6 24 35 37 64 33 76 32 182 -3 258 -93 201 -354
249 -512 94 -61 -61 -91 -135 -90 -225 0 -76 28 -164 60 -191 11 -9 14 -45 14
-156 l0 -145 -91 113 c-49 63 -97 120 -106 127 -12 9 -77 12 -237 13 -214 1
-219 1 -157 15 102 22 199 73 278 148 82 77 127 154 145 249 9 49 17 67 28 67
46 0 112 35 153 80 90 100 90 220 0 320 -42 46 -107 80 -155 80 -14 0 -18 8
-18 40 l0 40 -65 0 -64 0 24 25 c50 49 15 135 -55 135 -41 0 -80 39 -80 80 0
70 -86 105 -135 55 -84 -83 59 -295 199 -295 16 0 17 -25 14 -312 -3 -306 -4
-314 -26 -357 -76 -141 -272 -232 -438 -204 -129 22 -253 105 -306 204 -22 43
-23 51 -26 357 l-3 312 -80 0 -79 0 0 -38 c0 -37 -1 -37 -51 -49 -79 -19 -151
-83 -177 -158 -8 -23 -11 28 -11 207 -1 151 3 239 9 243 6 4 22 30 37 58 22
43 27 65 27 132 1 104 -26 166 -100 234 l-54 50 0 620 0 621 -80 0 -80 0 0
-599z m63 -775 c103 -43 128 -177 48 -257 -112 -113 -296 -12 -267 146 18 94
128 150 219 111z m417 -866 c0 -65 -3 -80 -15 -80 -27 0 -65 47 -65 80 0 33
38 80 65 80 12 0 15 -15 15 -80z m1175 55 c16 -15 25 -36 25 -55 0 -33 -38
-80 -65 -80 -12 0 -15 15 -15 80 0 90 11 100 55 55z m-1368 -192 c36 -49 85
-82 140 -95 l49 -12 12 -65 c18 -92 63 -171 143 -245 77 -74 181 -129 279
-150 l65 -14 -150 -1 -150 0 -217 254 -218 255 1 82 c0 71 2 79 11 53 6 -16
21 -44 35 -62z m-2704 -117 c103 -43 128 -177 48 -257 -65 -65 -157 -65 -222
0 -124 123 13 325 174 257z m1920 0 c103 -43 128 -177 48 -257 -65 -65 -157
-65 -222 0 -124 123 13 325 174 257z m2560 -80 c103 -43 128 -177 48 -257 -65
-65 -157 -65 -222 0 -124 123 13 325 174 257z"/>
<path d="M1232 4303 c-23 -20 -592 -1473 -592 -1511 0 -54 79 -91 125 -58 14
9 101 222 265 645 135 347 247 631 250 631 3 0 115 -284 250 -631 164 -422
251 -636 265 -645 46 -33 125 4 125 58 0 38 -569 1491 -592 1511 -11 9 -33 17
-48 17 -15 0 -37 -8 -48 -17z"/>
<path d="M2438 4152 c-68 -68 -78 -83 -78 -113 0 -46 34 -79 80 -79 29 0 45
12 112 78 89 89 99 122 53 167 -45 46 -78 36 -167 -53z"/>
<path d="M3155 4205 c-46 -45 -36 -78 53 -167 68 -68 83 -78 113 -78 46 0 79
34 79 80 0 29 -12 45 -78 112 -89 89 -122 99 -167 53z"/>
<path d="M3791 3983 c-26 -22 -511 -1074 -511 -1109 0 -33 42 -74 75 -74 44 0
65 19 95 86 16 35 35 64 43 64 8 0 123 -16 257 -35 134 -19 251 -35 261 -35
10 0 30 11 45 23 34 30 37 77 5 111 -20 21 -46 27 -261 57 -132 18 -240 38
-240 43 0 5 73 167 162 358 103 222 166 348 176 348 8 0 78 -12 156 -26 l141
-27 248 -246 c136 -135 247 -248 247 -252 0 -3 -6 -13 -13 -24 -13 -17 -23
-14 -184 49 -182 71 -209 75 -238 33 -22 -32 -19 -80 8 -104 12 -11 103 -52
202 -92 l180 -72 23 -49 c73 -154 292 -172 398 -33 47 62 61 134 40 206 -29
101 -107 164 -215 174 l-56 5 -280 278 -280 277 -210 42 c-115 22 -220 41
-231 41 -12 0 -31 -8 -43 -17z m1144 -808 c16 -15 25 -36 25 -55 0 -19 -9 -40
-25 -55 -15 -16 -36 -25 -55 -25 -19 0 -40 9 -55 25 -16 15 -25 36 -25 55 0
19 9 40 25 55 15 16 36 25 55 25 19 0 40 -9 55 -25z"/>
<path d="M1145 3575 c-16 -15 -25 -36 -25 -55 0 -19 9 -40 25 -55 23 -24 31
-25 135 -25 104 0 112 1 135 25 16 15 25 36 25 55 0 19 -9 40 -25 55 -23 24
-31 25 -135 25 -104 0 -112 -1 -135 -25z"/>
<path d="M4005 3415 c-14 -13 -25 -36 -25 -51 0 -34 345 -763 372 -786 45 -39
128 -2 128 56 0 32 -353 774 -377 792 -28 21 -71 17 -98 -11z"/>
<path d="M1225 3255 c-16 -15 -25 -36 -25 -55 0 -19 9 -40 25 -55 23 -24 31
-25 135 -25 104 0 112 1 135 25 16 15 25 36 25 55 0 19 -9 40 -25 55 -23 24
-31 25 -135 25 -104 0 -112 -1 -135 -25z"/>
<path d="M985 2935 c-16 -15 -25 -36 -25 -55 0 -19 9 -40 25 -55 23 -24 31
-25 135 -25 104 0 112 1 135 25 16 15 25 36 25 55 0 19 -9 40 -25 55 -23 24
-31 25 -135 25 -104 0 -112 -1 -135 -25z"/>
<path d="M1538 2770 c-107 -71 -279 -115 -489 -127 -110 -6 -126 -9 -146 -29
-31 -31 -30 -78 2 -109 21 -21 33 -25 89 -25 319 0 687 127 686 237 -1 32 -15
55 -47 71 -32 18 -45 15 -95 -18z"/>
<path d="M3385 2775 c-48 -47 -26 -145 50 -220 75 -76 173 -98 220 -50 50 49
15 135 -55 135 -19 0 -40 9 -55 25 -16 15 -25 36 -25 55 0 19 -9 40 -25 55
-15 16 -36 25 -55 25 -19 0 -40 -9 -55 -25z"/>
<path d="M3705 2775 c-48 -47 -26 -145 50 -220 75 -76 173 -98 220 -50 50 49
15 135 -55 135 -19 0 -40 9 -55 25 -16 15 -25 36 -25 55 0 19 -9 40 -25 55
-15 16 -36 25 -55 25 -19 0 -40 -9 -55 -25z"/>
<path d="M613 2640 c-12 -5 -65 -73 -118 -152 l-95 -143 0 -108 c0 -101 2
-109 25 -132 15 -16 36 -25 55 -25 19 0 40 9 55 25 23 22 25 32 25 107 l0 83
80 120 c96 143 103 187 39 220 -32 17 -35 17 -66 5z"/>
<path d="M1865 2615 c-41 -40 -33 -68 55 -200 l80 -120 0 -83 c0 -75 2 -85 25
-107 32 -33 78 -33 110 0 23 23 25 31 25 132 l0 107 -92 139 c-50 76 -100 142
-109 148 -31 16 -69 10 -94 -16z"/>
<path d="M960 2320 l0 -80 80 0 80 0 0 80 0 80 -80 0 -80 0 0 -80z"/>
<path d="M1440 2320 l0 -80 80 0 80 0 0 80 0 80 -80 0 -80 0 0 -80z"/>
<path d="M3520 2320 l0 -80 80 0 80 0 0 80 0 80 -80 0 -80 0 0 -80z"/>
<path d="M4000 2320 l0 -80 80 0 80 0 0 80 0 80 -80 0 -80 0 0 -80z"/>
<path d="M983 2054 c-24 -24 -25 -31 -20 -85 12 -111 69 -196 169 -250 58 -31
70 -34 148 -34 78 0 90 3 148 34 98 53 157 140 168 250 6 55 5 61 -19 85 l-26
26 -271 0 -271 0 -26 -26z m427 -143 c0 -6 -15 -21 -33 -35 -65 -50 -140 -47
-203 9 l-39 34 138 1 c80 0 137 -4 137 -9z"/>
<path d="M3543 2054 c-24 -24 -25 -31 -20 -85 12 -111 69 -196 169 -250 58
-31 70 -34 148 -34 78 0 90 3 148 34 98 53 157 140 168 250 6 55 5 61 -19 85
l-26 26 -271 0 -271 0 -26 -26z m427 -143 c0 -6 -15 -21 -33 -35 -65 -50 -140
-47 -203 9 l-39 34 138 1 c80 0 137 -4 137 -9z"/>
<path d="M1040 1107 c-54 -17 -133 -102 -149 -160 -29 -103 8 -259 90 -382 75
-112 239 -245 301 -245 14 0 53 18 86 40 184 123 291 288 309 473 9 97 -9 150
-71 212 -88 87 -202 100 -298 33 -28 -19 -28 -19 -55 0 -60 41 -140 52 -213
29z m135 -172 c16 -15 25 -36 25 -55 0 -41 39 -80 80 -80 41 0 80 39 80 80 0
19 9 40 25 55 53 54 135 15 135 -64 0 -55 -32 -152 -70 -211 -39 -60 -146
-160 -172 -160 -10 0 -51 33 -92 72 -90 90 -133 172 -143 270 -5 62 -4 68 20
92 34 34 79 34 112 1z"/>
<path d="M3760 1040 l0 -80 80 0 80 0 0 80 0 80 -80 0 -80 0 0 -80z"/>
<path d="M3760 720 l0 -80 80 0 80 0 0 80 0 80 -80 0 -80 0 0 -80z"/>
<path d="M3760 400 l0 -80 80 0 80 0 0 80 0 80 -80 0 -80 0 0 -80z"/>
<path d="M3760 80 l0 -80 80 0 80 0 0 80 0 80 -80 0 -80 0 0 -80z"/>
</g>
</svg>
